<svg xmlns="http://www.w3.org/2000/svg" version="1.1" xmlns:xlink="http://www.w3.org/1999/xlink" width="200" height="200"><svg xmlns="http://www.w3.org/2000/svg" version="1.1" xmlns:xlink="http://www.w3.org/1999/xlink" viewBox="0 0 200 200"><rect width="200" height="200" fill="url('#gradient')"></rect><defs><linearGradient id="SvgjsLinearGradient1001" gradientTransform="rotate(163 0.5 0.5)"><stop offset="0%" stop-color="#550715"></stop><stop offset="100%" stop-color="#202930"></stop></linearGradient></defs><g><g fill="#e5b8b8" transform="matrix(7.576323987538941,0,0,7.576323987538941,-1.0680055712985137,153.87191910610022)" stroke="#0f0602" stroke-width="0.3"><path d="M12.71-7.60L12.71-1.76Q11.92-0.88 10.40-0.34Q8.88 0.20 7.06 0.20L7.06 0.20Q4.27 0.20 2.60-1.51Q0.93-3.22 0.81-6.27L0.81-6.27L0.80-7.50Q0.80-9.60 1.54-11.17Q2.29-12.73 3.67-13.58Q5.05-14.42 6.87-14.42L6.87-14.42Q9.52-14.42 10.99-13.21Q12.46-11.99 12.71-9.58L12.71-9.58L9.40-9.58Q9.23-10.77 8.64-11.28Q8.06-11.79 6.98-11.79L6.98-11.79Q5.69-11.79 4.99-10.69Q4.29-9.60 4.28-7.57L4.28-7.57L4.28-6.71Q4.28-4.58 5.00-3.51Q5.73-2.44 7.29-2.44L7.29-2.44Q8.63-2.44 9.29-3.04L9.29-3.04L9.29-5.24L6.90-5.24L6.90-7.60L12.71-7.60ZM19.38 0L14.71 0L14.71-14.22L19.29-14.22Q21.17-14.22 22.68-13.36Q24.18-12.51 25.02-10.95Q25.87-9.39 25.88-7.46L25.88-7.46L25.88-6.81Q25.88-4.85 25.05-3.31Q24.23-1.76 22.73-0.88Q21.23-0.01 19.38 0L19.38 0ZM19.29-11.57L18.13-11.57L18.13-2.64L19.33-2.64Q20.80-2.64 21.59-3.69Q22.38-4.74 22.38-6.81L22.38-6.81L22.38-7.42Q22.38-9.48 21.59-10.53Q20.80-11.57 19.29-11.57L19.29-11.57Z"></path></g></g></svg><style>@media (prefers-color-scheme: light) { :root { filter: none; } }
@media (prefers-color-scheme: dark) { :root { filter: none; } }
</style></svg>